<svg xmlns="http://www.w3.org/2000/svg" width="512" height="512"><path fill="#222020" d="M120.246 14.74c1.208-.005 2.417-.008 3.662-.012q5-.012 10-.004c3.603.002 7.207-.007 10.81-.014q10.576-.018 21.153-.012 8.6.002 17.2-.005l2.477-.001 4.98-.004q23.335-.013 46.67-.003c14.218.006 28.437-.006 42.655-.025q21.923-.03 43.844-.024 12.3.005 24.597-.014 10.47-.019 20.94-.002 5.336.011 10.673-.005c3.864-.012 7.729-.002 11.593.01l3.375-.022c15.408.106 28.812 5.48 39.945 16.186L437 33l1.742 1.71c11.74 12.471 13.716 28.877 13.646 45.21q.006 2.376.016 4.751c.014 4.322.01 8.644.003 12.966-.005 4.673.008 9.346.018 14.02.017 9.143.018 18.286.013 27.43a17668 17668 0 0 0 .005 25.517l.004 6.46c.014 20.175.009 40.351-.003 60.527-.01 18.438.003 36.876.027 55.315q.037 28.431.027 56.862c-.003 10.633 0 21.265.017 31.898q.022 13.577-.002 27.155c-.009 4.613-.011 9.227.004 13.84q.02 6.35-.01 12.697-.005 2.283.01 4.566c.115 18.085-4.009 33.443-16.704 46.888-10.11 9.611-22.863 16.3-37.02 16.32l-3.134.011-3.424-.003-3.652.01q-5.013.01-10.027.01c-3.606.002-7.212.01-10.818.016q-11.828.02-23.654.024l-14.776.012q-20.464.019-40.93.026h-2.645l-7.97.002h-2.666q-21.367.009-42.733.046-21.95.035-43.899.037-12.318-.001-24.637.025-10.492.023-20.983.012a2122 2122 0 0 0-10.698.011c-3.874.015-7.747.007-11.62-.004l-3.383.025c-15.416-.097-28.825-5.469-39.964-16.181L75 479l-1.742-1.71C61.51 464.811 59.54 448.4 59.619 432.06q-.005-2.379-.014-4.758c-.013-4.328-.006-8.655.003-12.983.007-4.68-.004-9.358-.012-14.037-.013-9.155-.01-18.31-.002-27.464a16541 16541 0 0 0 .003-25.541l-.003-6.465c-.008-20.19.002-40.38.018-60.57q.018-25.966-.003-51.933a48053 48053 0 0 1-.01-66.8l.001-3.2q.003-11.145-.009-22.292-.013-13.59.01-27.178.014-6.93.001-13.858-.013-6.351.012-12.702a656 656 0 0 0-.006-4.578c-.078-17.646 3.678-32.538 16.189-45.525L78 30l1.64-1.707c11.209-10.727 25.7-13.604 40.606-13.554M98.188 53.186l-1.583 1.543c-5.97 8.44-6.18 16.698-6.12 26.711a1901.358 1901.358 0 0 0-.023 17.583c.007 4.636-.009 9.272-.022 13.909-.021 9.076-.021 18.152-.013 27.228q.008 11.066-.001 22.133l-.003 3.183-.006 6.403c-.016 20.008-.007 40.016.01 60.024.014 18.299 0 36.598-.03 54.898a27215 27215 0 0 0-.026 65.941q.002 11.05-.022 22.1-.027 13.471.005 26.942c.012 4.58.015 9.16-.004 13.741q-.024 6.295.014 12.59.008 2.271-.011 4.543c-.08 10.21 1.135 18.005 7.893 25.997l2.192 1.844c.72.63 1.44 1.258 2.183 1.906 6.293 4.216 12.75 3.882 20.05 3.861l3.584.014q4.913.014 9.827.01c3.536 0 7.072.01 10.608.02q10.386.023 20.773.023 8.445.001 16.889.012 23.95.026 47.9.025h5.218c13.962-.001 27.923.018 41.884.046q21.511.043 43.024.04c8.049 0 16.098.006 24.147.027q10.28.029 20.56.009c3.495-.006 6.99-.007 10.484.01 3.793.016 7.586.007 11.38-.009l3.327.032c7.733-.07 13.646-1.641 19.994-6.131l1.543-1.583 1.582-1.542c5.97-8.44 6.18-16.698 6.12-26.711q.008-2.352.02-4.704c.02-4.294.013-8.586.003-12.88-.007-4.635.009-9.271.022-13.908.021-9.076.021-18.152.013-27.228q-.008-11.066.001-22.133l.003-3.183.006-6.403c.016-20.008.007-40.016-.01-60.024-.014-18.299 0-36.598.03-54.898a27215 27215 0 0 0 .027-62.77l-.001-3.171q-.002-11.05.022-22.1.027-13.471-.005-26.942c-.012-4.58-.015-9.16.004-13.741q.024-6.295-.014-12.59-.008-2.272.011-4.543c.08-10.21-1.135-18.005-7.893-25.997l-2.191-1.844-2.184-1.906c-6.293-4.216-12.75-3.882-20.05-3.861l-3.584-.014q-4.913-.014-9.827-.01c-3.536 0-7.072-.01-10.608-.02q-10.386-.023-20.773-.023-8.445-.002-16.889-.012-23.95-.026-47.9-.025h-5.218c-13.962.001-27.923-.018-41.884-.046q-21.511-.043-43.024-.04c-8.049 0-16.098-.006-24.147-.027q-10.28-.029-20.56-.009c-3.495.006-6.99.007-10.484-.01a1399 1399 0 0 0-11.38.009l-3.327-.032c-8.106.073-15.67 1.698-21.536 7.713"/><path fill="#222020" d="M252.563 87.75c16.197.379 31.757 6.6 43.332 17.98C308.32 119.125 314.35 134.682 314 153c-.809 12.992-5.794 25.845-14 36 1.004.594 2.008 1.189 3.043 1.8 26.32 15.837 45.172 37.775 52.79 68.01 3.258 13.54 3.258 13.54 1.249 18.42-2.968 4.576-5.422 7.566-10.778 9.328-3.201.614-6.363.583-9.61.576l-2.235.007a2562 2562 0 0 1-7.417.004l-5.318.01q-7.224.013-14.448.012-6.031.002-12.063.008-14.23.013-28.462.01-14.678.001-29.355.026-12.602.019-25.205.018-7.526-.002-15.053.013-7.08.014-14.16.003-2.597-.003-5.192.007c-2.367.008-4.733.003-7.1-.005l-2.064.016c-5.936-.043-10.88-.753-15.435-4.7-5.361-6.281-4.806-11.554-4.187-19.563 4.557-27.022 21.776-49.487 43.58-65.223 4.373-3.1 8.806-6.046 13.42-8.777-.531-.895-1.062-1.79-1.61-2.71-10.15-17.283-14.944-32.891-10.292-52.868 3.865-14.657 12.796-27.642 25.846-35.62 10.424-6.072 20.604-9.209 32.619-10.052M230 131c-4.823 7.029-7.731 14.37-7 23 1.813 9.293 5.694 15.934 13.5 21.375 7.38 4.786 14.874 5.718 23.5 4.625 9.665-3.145 15.929-8.574 20.875-17.312 2.715-8.9 2.843-17.052-.875-25.688-4.435-7.535-10.009-11.618-17.75-15.312-12.018-2.543-23.97-.236-32.25 9.312m-27 99-2.422 2.082c-6.457 6-11.38 13.198-15.578 20.918v3h136c-6.093-18.279-20.451-29.934-36.996-38.562C256.672 204.977 225.41 210.703 203 230M136.346 390.869l2.629-.012 2.874.003 3.064-.01q5.098-.01 10.196-.011l7.297-.015q9.924-.019 19.847-.024 6.198-.005 12.395-.012 17.161-.019 34.323-.026h4.442l4.461-.002h2.235q17.928-.009 35.855-.046 18.41-.035 36.82-.037 10.335.001 20.67-.025 9.72-.024 19.44-.01 3.568.002 7.136-.013c3.247-.013 6.493-.007 9.74.004l2.854-.025c5.56.042 9.464.726 14.376 3.392 4.436 4.669 5.306 8.48 5.215 14.719-.44 4.68-2.332 7.464-5.715 10.593-3.333 2.25-5.828 2.813-9.757 2.82l-2.646.011-2.908-.003-3.089.01q-5.147.01-10.295.011l-7.36.015q-10.017.019-20.034.024-6.254.005-12.508.012-17.313.019-34.626.026h-4.4830000000000005l-4.502.002h-2.256q-18.094.009-36.187.046-18.574.035-37.148.037-10.43-.001-20.86.025-9.809.024-19.617.01-3.602-.002-7.205.013c-3.276.013-6.551.007-9.827-.004l-2.888.025c-5.19-.039-8.823-.473-13.304-3.392-4.383-4.739-5.306-8.447-5.215-14.719.438-4.65 2.33-7.442 5.653-10.594 3.625-2.387 6.622-2.811 10.908-2.818M135.257 330.869l2.646-.012 2.908.003 3.089-.01q5.147-.01 10.295-.011l7.36-.015q10.017-.019 20.034-.024 6.254-.005 12.508-.012 17.313-.019 34.626-.026h4.4830000000000005l4.502-.002h2.256q18.094-.009 36.187-.046 18.574-.035 37.148-.037 10.43.001 20.86-.025 9.808-.024 19.617-.01 3.602.002 7.205-.013c3.276-.013 6.551-.007 9.827.004l2.888-.025c5.19.039 8.823.473 13.304 3.392 4.042 4.37 5.391 7.798 5.27 13.809-.477 3.875-1.663 7.264-4.27 10.191-5.955 3.994-11.296 4.575-18.323 4.508l-3.073.019c-3.384.016-6.767.003-10.15-.01q-3.648.009-7.295.022-8.866.022-17.732.002-7.207-.013-14.416-.006l-2.075.002-4.175.004a15495 15495 0 0 1-39.11-.023q-16.764-.025-33.53.003a15025 15025 0 0 1-43.132.014l-2.067-.002q-7.196-.003-14.392.012-9.692.018-19.384-.02a1194 1194 0 0 0-7.11.006c-3.239.01-6.475-.003-9.713-.023l-2.837.027c-5.905-.07-10.612-1.044-15.486-4.535-3.684-4.207-4.603-8.326-4.32-13.86.686-4.59 2.458-7.343 5.82-10.453 3.333-2.25 5.828-2.812 9.757-2.818"/></svg>